<?xml version="1.0" ?>
<!DOCTYPE svg  PUBLIC '-//W3C//DTD SVG 1.1//EN'  'http://www.w3.org/Graphics/SVG/1.1/DTD/svg11.dtd'>
<!-- Uploaded to: SVG Repo, www.svgrepo.com, Generator: SVG Repo Mixer Tools -->
<svg width="800px" height="800px" viewBox="0 0 512 512" version="1.1" xml:space="preserve" xmlns="http://www.w3.org/2000/svg" xmlns:xlink="http://www.w3.org/1999/xlink">
<g id="_x36_69_x2C__hangbag__x2C__love_x2C__heart_x2C__wedding">
<g>
<path d="M223.55,326.459c14.93,0,27.02,11.051,27.02,24.682c0,24.67-27.02,38.719-54.01,63.398    c-26.99-24.68-53.98-38.729-53.98-63.398c0-13.631,12.09-24.682,26.99-24.682c13.49,0,20.24,6.17,26.99,18.512    C203.31,332.629,210.05,326.459,223.55,326.459z" style="fill:#EF3E5C;"/>
<g>
<g>
<g>
<path d="M157.509,356.141c0-13.631,12.09-24.682,26.99-24.682c0.558,0,1.087,0.027,1.622,0.049       c-4.324-3.355-9.517-5.049-16.55-5.049c-14.9,0-26.99,11.051-26.99,24.682c0,24.67,26.99,38.719,53.98,63.398       c1.517-1.387,3.034-2.736,4.546-4.061C177.988,391.063,157.509,377.629,157.509,356.141z" style="fill:#E42A53;"/>
</g>
</g>
</g>
<path d="M115.4,217.72c-10.01,0-18.13,8.12-18.13,18.13c0,10.01,8.12,18.12,18.13,18.12    c10.01,0,18.12-8.11,18.12-18.12C133.52,225.84,125.41,217.72,115.4,217.72z M269.44,146.67l21.069,21.07l22.141-22.14    l29.279,26.29v37.43v216.809v26.66c0,10.301-8.35,18.65-18.649,18.65H61.55c-10.29,0-18.64-8.35-18.64-18.65v-26.66V170.8    l29.06-26.09l18.75,18.76l18.62-18.62l6.06,6.06l16.25,16.25l22.15-22.15l18.76,18.76l18.62-18.62l18.75,18.76l18.62-18.62    l19.9,19.89l19.75-19.75L269.44,146.67z M269.44,217.72c-10.011,0-18.121,8.12-18.121,18.13c0,10.01,8.11,18.12,18.121,18.12    c10.01,0,18.119-8.11,18.119-18.12C287.56,225.84,279.45,217.72,269.44,217.72z M250.57,351.141    c0-13.631-12.09-24.682-27.02-24.682c-13.5,0-20.24,6.17-26.99,18.512c-6.75-12.342-13.5-18.512-26.99-18.512    c-14.9,0-26.99,11.051-26.99,24.682c0,24.67,26.99,38.719,53.98,63.398C223.55,389.859,250.57,375.811,250.57,351.141z" style="fill:#E3C6D3;"/>
<g>
<path d="M56.489,463.789v-26.66V181.8l27.698-24.867L71.97,144.71L42.91,170.8v255.329v26.66     c0,9.074,6.484,16.629,15.063,18.299C57.02,468.846,56.489,466.381,56.489,463.789z" style="fill:#D3B6C5;"/>
</g>
<path d="M269.44,222.72c-2.762,0-5-2.239-5-5v-95.14c0-19.235-7.492-37.32-21.096-50.924    C229.741,58.052,211.656,50.56,192.42,50.56c-39.712,0-72.02,32.308-72.02,72.02v95.14c0,2.761-2.239,5-5,5s-5-2.239-5-5v-95.14    c0-45.226,36.794-82.02,82.02-82.02c21.907,0,42.503,8.532,57.996,24.024c15.493,15.493,24.025,36.089,24.025,57.996v95.14    C274.44,220.481,272.202,222.72,269.44,222.72z" style="fill:#EF3E5C;"/>
<path d="M269.44,258.97c-12.749,0-23.121-10.372-23.121-23.12c0-12.754,10.372-23.13,23.121-23.13    c12.748,0,23.119,10.376,23.119,23.13C292.56,248.598,282.188,258.97,269.44,258.97z M269.44,222.72    c-7.234,0-13.121,5.89-13.121,13.13c0,7.234,5.886,13.12,13.121,13.12s13.119-5.886,13.119-13.12    C282.56,228.61,276.675,222.72,269.44,222.72z" style="fill:#EF3E5C;"/>
<path d="M115.4,258.97c-12.754,0-23.13-10.372-23.13-23.12c0-12.754,10.376-23.13,23.13-23.13    c12.749,0,23.12,10.376,23.12,23.13C138.52,248.598,128.148,258.97,115.4,258.97z M115.4,222.72c-7.24,0-13.13,5.89-13.13,13.13    c0,7.234,5.89,13.12,13.13,13.12c7.234,0,13.12-5.886,13.12-13.12C128.52,228.61,122.634,222.72,115.4,222.72z" style="fill:#EF3E5C;"/>
<path d="M215.067,295.209c-1.121,0-2.248-0.375-3.179-1.143c-2.13-1.758-2.432-4.91-0.674-7.039    c0.71-0.873,17.444-21.916,0-43.055c-7.605-9.216-10.989-18.569-10.057-27.798c1.277-12.657,10.383-20.15,10.771-20.463    c2.147-1.735,5.295-1.403,7.032,0.746c1.73,2.141,1.404,5.276-0.726,7.016c-1.689,1.403-15.816,14.127,0.693,34.136    c18.206,22.062,7.961,46.136,0,55.785C217.938,294.59,216.508,295.209,215.067,295.209z" style="fill:#D3B6C5;"/>
<path d="M169.757,277.09c-1.12,0-2.247-0.375-3.179-1.145c-2.13-1.756-2.432-4.908-0.675-7.037    c0.542-0.668,13.415-16.917,0-33.176c-6.26-7.588-9.042-15.319-8.268-22.978c1.064-10.534,8.659-16.783,8.982-17.043    c2.146-1.738,5.296-1.402,7.031,0.746c1.729,2.139,1.405,5.27-0.719,7.01c-1.272,1.065-11.864,10.687,0.688,25.901    c14.978,18.155,6.549,37.964,0,45.903C172.628,276.469,171.198,277.09,169.757,277.09z" style="fill:#D3B6C5;"/>
<path d="M169.295,431.129H51.505c-2.761,0-5-2.238-5-5s2.239-5,5-5h117.79c2.761,0,5,2.238,5,5    S172.056,431.129,169.295,431.129z" style="fill:#D3B6C5;"/>
<path d="M396.29,249.91c-0.58,0-14.292-0.11-21.211-9.709c-4.389-6.087-4.944-14.182-1.652-24.061    c0.231-0.696,0.932-3.031,0.198-3.824c-0.443-0.479-5.053-4.483-30.486,1.856c-13.822,3.441-26.516,8.182-26.643,8.23    c-2.585,0.969-5.468-0.341-6.438-2.926c-0.97-2.585,0.34-5.467,2.926-6.438c0.539-0.202,13.364-4.992,27.737-8.57    c28.602-7.129,36.665-2.812,40.242,1.055c2.193,2.37,4.313,6.685,1.95,13.778c-2.212,6.636-2.126,11.69,0.255,15.022    c3.23,4.521,10.581,5.566,13.142,5.587c2.753,0.023,4.98,2.267,4.969,5.021S399.043,249.91,396.29,249.91z" style="fill:#E3C6D3;"/>
<path d="M439.05,251.8l30.04,80.36l-62.88,23.51l-30.04-80.359l22.6-35.401L439.05,251.8z M418.85,278.6    c3.54-3.539,3.54-9.27,0-12.811c-3.54-3.539-9.27-3.539-12.81,0c-3.54,3.541-3.54,9.271,0,12.811    C409.58,282.141,415.31,282.141,418.85,278.6z" style="fill:#415A6B;"/>
<g>
<polygon points="388.67,280.596 411.27,245.195 439.721,253.593 439.05,251.8 398.77,239.91      376.17,275.311 406.21,355.67 415.443,352.217    " style="fill:#314956;"/>
</g>
</g>
</g>
<g id="Layer_1"/>
</svg>